<svg width="23" height="22" viewBox="0 0 23 22" fill="none" xmlns="http://www.w3.org/2000/svg">
  <path fill-rule="evenodd" clip-rule="evenodd" d="m16.218 7.505-.006.003-.028.013q-.04.017-.115.054a9.2 9.2 0 0 0-1.729 1.106c-.963.786-1.822 1.86-1.843 3.177a105 105 0 0 0-.02 2.867 12 12 0 0 0 .015.482.55.55 0 0 1-1.088.157l.543-.089-.543.088v-.003l-.001-.003-.001-.008-.002-.014a2 2 0 0 1-.01-.129c-.004-.086-.009-.23-.012-.467-.006-.474-.006-1.337.019-2.899.029-1.803 1.196-3.153 2.247-4.011a10.3 10.3 0 0 1 2.082-1.309l.039-.017.011-.005.004-.002h.001L16 7l-.218-.505a.55.55 0 0 1 .436 1.01M6.95 7a.55.55 0 0 0 .563.552q.038.002.125.02c.116.024.292.076.503.186.416.215 1.001.672 1.528 1.655a.55.55 0 0 0 .97-.52c-.627-1.17-1.37-1.79-1.992-2.112a3 3 0 0 0-.78-.285 2 2 0 0 0-.35-.045H7.5V7v-.55a.55.55 0 0 0-.55.55" fill="#363E4E"/>
  <path d="M13.846 6.323 16.658 6v3.135M9.907 6.323H7.096v2.812" stroke="#363E4E" stroke-linecap="round" stroke-linejoin="round"/>
  <path d="M20 5v11.5a2.5 2.5 0 0 1-2.5 2.5H6M17 3H6.5A2.5 2.5 0 0 0 4 5.5V16m-2.5 5L21.646.647" stroke="#363E4E" stroke-width="1.2" stroke-linecap="round"/>
</svg>
